# xmcd
# 
# Track frame offsets:
#     150
#     14397
#     28467
#     43663
#     54932
#     68402
#     84422
#     94367
#     105985
#     119255
#     139791
#     156973
#     179490
#     202046
# 
# Disc length: 2908
# 
# Revision: 1
# Processed by: cddbd v1.5.2PL0 Copyright (c) Steve Scherf et al.
# Submitted via: BonkEnc v1.0.15
# 
DISCID=bc0b5a0e
DTITLE=Various Artist - Muddy Waters and The Slide Guitar Blues Cats
DYEAR=0
DGENRE=Blues
TTITLE0=Muddy Waters - I Feel Like Going Home
TTITLE1=Muddy Waters - Where's My Woman Been
TTITLE2=Muddy Waters - Honey Bee
TTITLE3=Johnny Shines - Fish Tall
TTITLE4=Junior Brooks - She's The Little Girl For Me
TTITLE5=Robert Nighthawk - Black Angel Blues
TTITLE6=Earl Hooker - Blues In D Natural
TTITLE7=Elmore James - Fine Little Mama
TTITLE8=J.B. Hutto - Speak My Mind
TTITLE9=Mississippi Fred McDowell - Write Me A Few Of Your Lines
TTITLE10=R.L. Burnside - Fireman Ring The Bell
TTITLE11=Johnny Winter - Murdering Blues
TTITLE12=Steady Rollin' Bob Margolin - She And The Devil (edited version)
TTITLE13=Otis Spann With Muddy Waters and His Band - Can't Lose What You Ain't Never Had
EXTD=Blues and Soul Records No.52
EXTT0=
EXTT1=
EXTT2=
EXTT3=
EXTT4=
EXTT5=
EXTT6=
EXTT7=
EXTT8=
EXTT9=
EXTT10=
EXTT11=
EXTT12=
EXTT13=
PLAYORDER=
